<svg width="200" height="200" viewBox="0 0 200 200" fill="none" xmlns="http://www.w3.org/2000/svg">
<path d="M18.1951 180.007L0 0H200L181.781 179.979L99.8785 200L18.1951 180.007Z" fill="#1572B6"/>
<path d="M98.9795 182.076L165.891 164.746L181.633 0H98.9795V182.076Z" fill="#33A9DC"/>
<path d="M98.9795 70.6366H132.906L135.245 45.4003H98.9795V20.7542H163.265L162.651 27.3642L156.356 95.2827H98.9795V70.6366V70.6366Z" fill="white"/>
<path d="M101.02 131.791L100.907 131.822L72.9288 124.655L71.1406 105.66H45.9183L49.4379 143.057L100.898 156.604L101.02 156.573V131.791V131.791Z" fill="#EBEBEB"/>
<path d="M131.079 94.3396L127.952 125.445L98.9795 132.435V156.604L152.234 143.407L152.629 139.484L157.143 94.3396H131.079V94.3396Z" fill="white"/>
<path d="M101.02 20.7136V46.1849H43.954L43.4801 40.4578L42.4024 27.545L41.8368 20.7136H101.02V20.7136Z" fill="#EBEBEB"/>
<path d="M101.02 69.8113V95.2828H73.651L73.1518 89.5556L72.0245 76.6427L71.4286 69.8113H101.02V69.8113Z" fill="#EBEBEB"/>
</svg>
