<svg width="250" height="250" viewBox="0 0 250 250" fill="none" xmlns="http://www.w3.org/2000/svg">
<path d="M22.7438 225.009L0 0H250L227.226 224.973L124.848 250L22.7438 225.009Z" fill="#1572B6"/>
<path d="M123.724 227.594L207.364 205.932L227.041 0H123.724V227.594Z" fill="#33A9DC"/>
<path d="M123.724 88.2957H166.132L169.056 56.7504H123.724V25.9427H204.082L203.314 34.2053L195.444 119.103H123.724V88.2957V88.2957Z" fill="white"/>
<path d="M126.275 164.738L126.133 164.777L91.161 155.819L88.9258 132.075H57.3979L61.7974 178.821L126.123 195.754L126.275 195.716V164.738V164.738Z" fill="#EBEBEB"/>
<path d="M163.848 117.924L159.94 156.807L123.724 165.543V195.755L190.293 179.259L190.787 174.355L196.428 117.924H163.848V117.924Z" fill="white"/>
<path d="M126.275 25.892V57.7311H54.9425L54.3501 50.5722L53.0029 34.4312L52.2959 25.892H126.275V25.892Z" fill="#EBEBEB"/>
<path d="M126.275 87.2641V119.104H92.0637L91.4397 111.945L90.0305 95.8034L89.2857 87.2641H126.275V87.2641Z" fill="#EBEBEB"/>
</svg>
