<svg width="200" height="200" viewBox="0 0 200 200" fill="none" xmlns="http://www.w3.org/2000/svg">
<path d="M200 0L181.78 179.98L99.8777 200L18.2016 180.007L0 0H200Z" fill="#E44D26"/>
<path d="M100 184.696L166.181 168.519L181.751 14.7179H100V184.696Z" fill="#F16529"/>
<path d="M64.58 58.8728H100V36.7957H37.2169L37.8158 42.7185L43.97 103.557H100V81.4801H66.8684L64.58 58.8728Z" fill="#EBEBEB"/>
<path d="M70.2231 114.596H45.0889L48.5963 149.26L99.8848 161.814L100 161.787V138.817L99.8903 138.842L72.0058 132.203L70.2231 114.596Z" fill="#EBEBEB"/>
<path d="M99.9137 103.557H130.745L127.838 132.19L99.9128 138.835V161.804L151.242 149.26L151.619 145.531L157.503 87.4084L158.113 81.4801H99.9137V103.557Z" fill="white"/>
<path d="M99.9138 58.8188V58.8728H160.391L160.894 53.9109L162.035 42.7185L162.633 36.7957H99.9138V58.8195V58.8188Z" fill="white"/>
</svg>
