<svg width="200" height="200" viewBox="0 0 200 200" fill="none" xmlns="http://www.w3.org/2000/svg">
<path d="M150 133.333C177.614 133.333 200 118.409 200 99.9999C200 81.5905 177.614 66.6667 150 66.6667C122.386 66.6667 100 81.5905 100 99.9999C100 118.409 122.386 133.333 150 133.333Z" fill="#19BCFE"/>
<path fill-rule="evenodd" clip-rule="evenodd" d="M50 200C63.2608 200 75.9785 196.488 85.3553 190.237C94.7322 183.986 100 175.507 100 166.667V133.333H50C36.7392 133.333 24.0215 136.845 14.6447 143.096C5.26784 149.347 0 157.826 0 166.667C0 175.507 5.26784 183.986 14.6447 190.237C24.0215 196.488 36.7392 200 50 200V200Z" fill="#09CF83"/>
<path fill-rule="evenodd" clip-rule="evenodd" d="M50 133.333H100V66.6667H50C36.7392 66.6667 24.0215 70.1786 14.6447 76.4297C5.26784 82.6809 0 91.1594 0 99.9999C0 108.84 5.26784 117.319 14.6447 123.57C24.0215 129.821 36.7392 133.333 50 133.333V133.333Z" fill="#A259FF"/>
<path fill-rule="evenodd" clip-rule="evenodd" d="M50 66.6666H100V0H50C36.7392 0 24.0215 3.51189 14.6447 9.7631C5.26784 16.0143 0 24.4928 0 33.3333C0 42.1738 5.26784 50.6523 14.6447 56.9035C24.0215 63.1547 36.7392 66.6666 50 66.6666V66.6666Z" fill="#F24E1E"/>
<path fill-rule="evenodd" clip-rule="evenodd" d="M150 66.6666H100V0H150C163.261 0 175.979 3.51189 185.355 9.7631C194.732 16.0143 200 24.4928 200 33.3333C200 42.1738 194.732 50.6523 185.355 56.9035C175.979 63.1547 163.261 66.6666 150 66.6666Z" fill="#FF7262"/>
</svg>
