<svg width="250" height="250" viewBox="0 0 250 250" fill="none" xmlns="http://www.w3.org/2000/svg">
<path d="M187.5 166.666C222.018 166.666 250 148.012 250 125C250 101.988 222.018 83.3334 187.5 83.3334C152.982 83.3334 125 101.988 125 125C125 148.012 152.982 166.666 187.5 166.666Z" fill="#19BCFE"/>
<path fill-rule="evenodd" clip-rule="evenodd" d="M62.5 250C79.076 250 94.9732 245.61 106.694 237.796C118.415 229.982 125 219.384 125 208.333V166.666H62.5C45.924 166.666 30.0269 171.056 18.3058 178.87C6.5848 186.684 0 197.282 0 208.333C0 219.384 6.5848 229.982 18.3058 237.796C30.0269 245.61 45.924 250 62.5 250V250Z" fill="#09CF83"/>
<path fill-rule="evenodd" clip-rule="evenodd" d="M62.5 166.666H125V83.3334H62.5C45.924 83.3334 30.0269 87.7232 18.3058 95.5372C6.5848 103.351 0 113.949 0 125C0 136.05 6.5848 146.649 18.3058 154.462C30.0269 162.276 45.924 166.666 62.5 166.666V166.666Z" fill="#A259FF"/>
<path fill-rule="evenodd" clip-rule="evenodd" d="M62.5 83.3333H125V0H62.5C45.924 0 30.0269 4.38987 18.3058 12.2039C6.5848 20.0179 0 30.616 0 41.6666C0 52.7173 6.5848 63.3154 18.3058 71.1294C30.0269 78.9434 45.924 83.3333 62.5 83.3333V83.3333Z" fill="#F24E1E"/>
<path fill-rule="evenodd" clip-rule="evenodd" d="M187.5 83.3333H125V0H187.5C204.076 0 219.973 4.38987 231.694 12.2039C243.415 20.0179 250 30.616 250 41.6666C250 52.7173 243.415 63.3154 231.694 71.1294C219.973 78.9434 204.076 83.3333 187.5 83.3333Z" fill="#FF7262"/>
</svg>
