<svg width="250" height="250" viewBox="0 0 250 250" fill="none" xmlns="http://www.w3.org/2000/svg">
<path d="M250 0L227.225 224.975L124.847 250L22.752 225.009L0 0H250Z" fill="#E44D26"/>
<path d="M125 230.871L207.726 210.649L227.188 18.3974H125V230.871Z" fill="#F16529"/>
<path d="M80.725 73.591H125V45.9946H46.5212L47.2698 53.3982L54.9625 129.447H125V101.85H83.5856L80.725 73.591Z" fill="#EBEBEB"/>
<path d="M87.7788 143.245H56.3611L60.7453 186.575L124.856 202.268L125 202.234V173.521L124.863 173.553L90.0073 165.254L87.7788 143.245Z" fill="#EBEBEB"/>
<path d="M124.892 129.447H163.432L159.798 165.237L124.891 173.544V202.255L189.053 186.575L189.524 181.914L196.879 109.261L197.641 101.85H124.892V129.447Z" fill="white"/>
<path d="M124.892 73.5235V73.591H200.489L201.118 67.3886L202.544 53.3982L203.292 45.9946H124.892V73.5244V73.5235Z" fill="white"/>
</svg>
