<svg width="250" height="250" viewBox="0 0 250 250" fill="none" xmlns="http://www.w3.org/2000/svg">
<path d="M0 0H250V250H0V0Z" fill="#F7DF1E"/>
<path d="M65.7344 208.918L84.8652 197.34C88.5566 203.884 91.9141 209.421 99.9678 209.421C107.688 209.421 112.556 206.402 112.556 194.655V114.775H136.049V194.987C136.049 219.32 121.785 230.397 100.975 230.397C82.1807 230.397 71.2715 220.663 65.7334 208.916" fill="#0D0E1E"/>
<path d="M148.81 206.401L167.938 195.325C172.975 203.549 179.52 209.59 191.098 209.59C200.833 209.59 207.04 204.723 207.04 198.01C207.04 189.955 200.663 187.102 189.923 182.404L184.051 179.885C167.101 172.671 155.857 163.609 155.857 144.478C155.857 126.857 169.282 113.431 190.26 113.431C205.195 113.431 215.936 118.634 223.654 132.227L205.361 143.975C201.333 136.759 196.972 133.906 190.259 133.906C183.378 133.906 179.015 138.27 179.015 143.975C179.015 151.023 183.378 153.877 193.446 158.24L199.319 160.757C219.29 169.317 230.533 178.042 230.533 197.675C230.533 218.821 213.92 230.4 191.601 230.4C169.785 230.4 155.688 219.995 148.809 206.401" fill="#0D0E1E"/>
</svg>
