<svg width="500" height="400" viewBox="0 0 500 400" fill="none" xmlns="http://www.w3.org/2000/svg">
<g clip-path="url(#clip0)">
<path d="M108.336 355.062C122.697 355.062 134.339 338.852 134.339 318.857C134.339 298.862 122.697 282.653 108.336 282.653C93.9752 282.653 82.3333 298.862 82.3333 318.857C82.3333 338.852 93.9752 355.062 108.336 355.062Z" fill="#F2F2F2"/>
<path d="M112.564 349.764C126.925 349.764 138.567 333.554 138.567 313.559C138.567 293.564 126.925 277.355 112.564 277.355C98.2033 277.355 86.5615 293.564 86.5615 313.559C86.5615 333.554 98.2033 349.764 112.564 349.764Z" fill="#6C63FF"/>
<path d="M455.231 273.5H133.506V274.722H455.231V273.5Z" fill="#3F3D56"/>
<path d="M300.127 11.3986H185.935V8.1216H134.156V11.3986H19.4923C18.4779 11.3986 17.4735 11.6768 16.5364 12.2172C15.5992 12.7577 14.7477 13.5499 14.0304 14.5486C13.3132 15.5472 12.7442 16.7328 12.356 18.0376C11.9678 19.3424 11.768 20.7409 11.768 22.1533V239.864C11.768 242.716 12.5818 245.451 14.0304 247.468C15.479 249.485 17.4437 250.618 19.4923 250.618H300.127C302.176 250.618 304.141 249.485 305.589 247.468C307.038 245.451 307.852 242.716 307.852 239.864V22.1533C307.852 20.7409 307.652 19.3424 307.264 18.0376C306.876 16.7328 306.307 15.5472 305.589 14.5486C304.872 13.5499 304.021 12.7577 303.083 12.2172C302.146 11.6768 301.142 11.3986 300.127 11.3986V11.3986Z" fill="#3F3D56"/>
<path d="M297.496 30.4051H22.1239V246.686H297.496V30.4051Z" fill="#6C63FF"/>
<path d="M159.574 24.5065C161.134 24.5065 162.399 22.7459 162.399 20.5741C162.399 18.4024 161.134 16.6418 159.574 16.6418C158.015 16.6418 156.75 18.4024 156.75 20.5741C156.75 22.7459 158.015 24.5065 159.574 24.5065Z" fill="#6C63FF"/>
<path opacity="0.1" d="M218.744 246.686H22.124V30.4053L218.744 246.686Z" fill="black"/>
<path d="M65.2114 230.502C79.8301 230.502 91.681 214.001 91.681 193.647C91.681 173.293 79.8301 156.793 65.2114 156.793C50.5926 156.793 38.7418 173.293 38.7418 193.647C38.7418 214.001 50.5926 230.502 65.2114 230.502Z" fill="#F2F2F2"/>
<path d="M249.549 147.047H223.826V154.531H249.549V147.047Z" fill="#3F3D56"/>
<path d="M280.647 88.7819H192.729V91.9892H280.647V88.7819Z" fill="#3F3D56"/>
<path d="M280.647 98.9382H192.729V102.145H280.647V98.9382Z" fill="#3F3D56"/>
<path d="M280.647 109.095H192.729V112.302H280.647V109.095Z" fill="#3F3D56"/>
<path d="M280.647 119.251H192.729V122.458H280.647V119.251Z" fill="#3F3D56"/>
<path d="M280.647 129.407H192.729V132.614H280.647V129.407Z" fill="#3F3D56"/>
<path d="M280.647 34.793H269.897V49.7602H280.647V34.793Z" fill="#F2F2F2"/>
<path d="M285.638 56.7093H272.584V38.5348H285.638V56.7093ZM273.152 55.9191H285.07V39.325H273.152V55.9191Z" fill="#3F3D56"/>
<path d="M315.584 242.754H288.709V240.058C288.709 239.987 288.699 239.918 288.68 239.853C288.661 239.788 288.632 239.729 288.597 239.68C288.561 239.63 288.519 239.591 288.472 239.564C288.425 239.537 288.376 239.523 288.325 239.523H279.111C279.061 239.523 279.011 239.537 278.964 239.564C278.917 239.591 278.875 239.63 278.84 239.68C278.804 239.729 278.776 239.788 278.756 239.853C278.737 239.918 278.727 239.987 278.727 240.058V242.754H272.968V240.058C272.968 239.987 272.958 239.918 272.939 239.853C272.92 239.788 272.891 239.729 272.856 239.68C272.82 239.63 272.778 239.591 272.731 239.564C272.685 239.537 272.635 239.523 272.584 239.523H263.37C263.32 239.523 263.27 239.537 263.223 239.564C263.177 239.591 263.134 239.63 263.099 239.68C263.063 239.729 263.035 239.788 263.015 239.853C262.996 239.918 262.986 239.987 262.986 240.058V242.754H257.227V240.058C257.227 239.987 257.218 239.918 257.198 239.853C257.179 239.788 257.151 239.729 257.115 239.68C257.079 239.63 257.037 239.591 256.99 239.564C256.944 239.537 256.894 239.523 256.844 239.523H247.629C247.579 239.523 247.529 239.537 247.483 239.564C247.436 239.591 247.394 239.63 247.358 239.68C247.322 239.729 247.294 239.788 247.275 239.853C247.255 239.918 247.246 239.987 247.246 240.058V242.754H241.487V240.058C241.487 239.987 241.477 239.918 241.457 239.853C241.438 239.788 241.41 239.729 241.374 239.68C241.339 239.63 241.296 239.591 241.25 239.564C241.203 239.537 241.153 239.523 241.103 239.523H231.889C231.838 239.523 231.788 239.537 231.742 239.564C231.695 239.591 231.653 239.63 231.617 239.68C231.581 239.729 231.553 239.788 231.534 239.853C231.515 239.918 231.505 239.987 231.505 240.058V242.754H225.746V240.058C225.746 239.987 225.736 239.918 225.717 239.853C225.697 239.788 225.669 239.729 225.633 239.68C225.598 239.63 225.555 239.591 225.509 239.564C225.462 239.537 225.412 239.523 225.362 239.523H216.148C216.097 239.523 216.048 239.537 216.001 239.564C215.954 239.591 215.912 239.63 215.876 239.68C215.841 239.729 215.812 239.788 215.793 239.853C215.774 239.918 215.764 239.987 215.764 240.058V242.754H210.005V240.058C210.005 239.987 209.995 239.918 209.976 239.853C209.957 239.788 209.928 239.729 209.893 239.68C209.857 239.63 209.815 239.591 209.768 239.564C209.722 239.537 209.672 239.523 209.621 239.523H200.407C200.357 239.523 200.307 239.537 200.26 239.564C200.214 239.591 200.171 239.63 200.136 239.68C200.1 239.729 200.072 239.788 200.052 239.853C200.033 239.918 200.023 239.987 200.023 240.058V242.754H194.264V240.058C194.264 239.987 194.254 239.918 194.235 239.853C194.216 239.788 194.188 239.729 194.152 239.68C194.116 239.63 194.074 239.591 194.027 239.564C193.981 239.537 193.931 239.523 193.88 239.523H121.703C121.653 239.523 121.603 239.537 121.556 239.564C121.51 239.591 121.467 239.63 121.432 239.68C121.396 239.729 121.368 239.788 121.348 239.853C121.329 239.918 121.319 239.987 121.319 240.058V242.754H115.56V240.058C115.56 239.987 115.55 239.918 115.531 239.853C115.512 239.788 115.484 239.729 115.448 239.68C115.412 239.63 115.37 239.591 115.323 239.564C115.277 239.537 115.227 239.523 115.176 239.523H105.962C105.912 239.523 105.862 239.537 105.815 239.564C105.769 239.591 105.727 239.63 105.691 239.68C105.655 239.729 105.627 239.788 105.608 239.853C105.588 239.918 105.578 239.987 105.578 240.058V242.754H99.8196V240.058C99.8196 239.987 99.8097 239.918 99.7904 239.853C99.7711 239.788 99.7428 239.729 99.7072 239.68C99.6715 239.63 99.6292 239.591 99.5826 239.564C99.536 239.537 99.4861 239.523 99.4357 239.523H90.2216C90.1711 239.523 90.1212 239.537 90.0746 239.564C90.0281 239.591 89.9857 239.63 89.9501 239.68C89.9144 239.729 89.8862 239.788 89.8669 239.853C89.8476 239.918 89.8376 239.987 89.8376 240.058V242.754H84.0788V240.058C84.0788 239.987 84.0689 239.918 84.0496 239.853C84.0303 239.788 84.002 239.729 83.9664 239.68C83.9307 239.63 83.8884 239.591 83.8418 239.564C83.7952 239.537 83.7453 239.523 83.6949 239.523H74.4808C74.4304 239.523 74.3804 239.537 74.3339 239.564C74.2873 239.591 74.245 239.63 74.2093 239.68C74.1737 239.729 74.1454 239.788 74.1261 239.853C74.1068 239.918 74.0969 239.987 74.0969 240.058V242.754H68.3381V240.058C68.3381 239.987 68.3281 239.918 68.3088 239.853C68.2895 239.788 68.2613 239.729 68.2256 239.68C68.19 239.63 68.1476 239.591 68.1011 239.564C68.0545 239.537 68.0046 239.523 67.9541 239.523H58.74C58.6896 239.523 58.6397 239.537 58.5931 239.564C58.5465 239.591 58.5042 239.63 58.4685 239.68C58.4329 239.729 58.4046 239.788 58.3853 239.853C58.366 239.918 58.3561 239.987 58.3561 240.058V242.754H52.5973V240.058C52.5973 239.987 52.5873 239.918 52.568 239.853C52.5487 239.788 52.5205 239.729 52.4848 239.68C52.4492 239.63 52.4068 239.591 52.3603 239.564C52.3137 239.537 52.2638 239.523 52.2133 239.523H42.9992C42.9488 239.523 42.8989 239.537 42.8523 239.564C42.8057 239.591 42.7634 239.63 42.7277 239.68C42.6921 239.729 42.6638 239.788 42.6445 239.853C42.6252 239.918 42.6153 239.987 42.6153 240.058V242.754H36.8565V240.058C36.8565 239.987 36.8465 239.918 36.8273 239.853C36.808 239.788 36.7797 239.729 36.744 239.68C36.7084 239.63 36.6661 239.591 36.6195 239.564C36.5729 239.537 36.523 239.523 36.4726 239.523H27.2584C27.208 239.523 27.1581 239.537 27.1115 239.564C27.0649 239.591 27.0226 239.63 26.987 239.68C26.9513 239.729 26.923 239.788 26.9037 239.853C26.8844 239.918 26.8745 239.987 26.8745 240.058V242.754H9.21412C6.77038 242.754 4.42674 244.105 2.69876 246.511C0.970774 248.917 2.32815e-06 252.18 0 255.583V261.384C6.98445e-06 264.786 0.970781 268.049 2.69876 270.455C4.42674 272.861 6.77039 274.213 9.21412 274.213H315.584C318.027 274.213 320.371 272.861 322.099 270.455C323.827 268.049 324.798 264.786 324.798 261.384V255.583C324.798 252.18 323.827 248.917 322.099 246.511C320.371 244.105 318.027 242.754 315.584 242.754Z" fill="#3F3D56"/>
<path d="M71.6185 216.666C65.021 216.666 58.5716 213.942 53.086 208.839C47.6004 203.735 43.3248 196.482 40.8001 187.995C38.2753 179.508 37.6147 170.17 38.9018 161.161C40.1889 152.151 43.3659 143.876 48.0311 137.38C52.6962 130.885 58.64 126.461 65.1107 124.669C71.5815 122.877 78.2886 123.797 84.3839 127.312C90.4792 130.828 95.6889 136.78 99.3543 144.418C103.02 152.056 104.976 161.036 104.976 170.221C104.966 182.535 101.448 194.34 95.1948 203.047C88.9412 211.754 80.4624 216.652 71.6185 216.666ZM71.6185 124.999C65.1946 124.999 58.915 127.651 53.5737 132.62C48.2324 137.59 44.0694 144.652 41.6111 152.916C39.1528 161.179 38.5096 170.272 39.7628 179.044C41.016 187.816 44.1094 195.874 48.6518 202.198C53.1942 208.523 58.9815 212.83 65.282 214.575C71.5824 216.32 78.113 215.424 84.0479 212.001C89.9828 208.579 95.0555 202.782 98.6244 195.346C102.193 187.909 104.098 179.166 104.098 170.221C104.089 158.232 100.663 146.737 94.5744 138.259C88.4853 129.781 80.2297 125.013 71.6185 124.999V124.999Z" fill="#3F3D56"/>
<path d="M369.203 19.8876H257.28V21.1098H369.203V19.8876Z" fill="#3F3D56"/>
<path d="M500 342.555H178.275V343.778H500V342.555Z" fill="#3F3D56"/>
<path d="M196.49 398.778H84.5666V400H196.49V398.778Z" fill="#3F3D56"/>
<path d="M219.019 336.112H206.729V353.223H219.019V336.112Z" fill="#6C63FF"/>
<path d="M226.481 343.446H211.557V322.668H226.481V343.446ZM212.206 342.542H225.832V323.571H212.206V342.542Z" fill="#3F3D56"/>
<path d="M361.667 13.4445H349.377V30.5557H361.667V13.4445Z" fill="#6C63FF"/>
<path d="M369.128 20.7778H354.205V0H369.128V20.7778ZM354.854 19.8745H368.479V0.903387H354.854V19.8745Z" fill="#3F3D56"/>
<path d="M485.441 336.112H473.151V353.223H485.441V336.112Z" fill="#6C63FF"/>
<path d="M492.902 343.446H477.979V322.668H492.902V343.446ZM478.628 342.542H492.253V323.571H478.628V342.542Z" fill="#3F3D56"/>
<path d="M464.009 141.753H462.965V101.932C462.965 98.905 462.537 95.908 461.705 93.1117C460.873 90.3155 459.654 87.7748 458.117 85.6346C456.58 83.4945 454.755 81.7968 452.747 80.6386C450.738 79.4804 448.586 78.8842 446.412 78.8842H385.818C383.644 78.8842 381.492 79.4804 379.483 80.6386C377.475 81.7968 375.65 83.4945 374.113 85.6346C372.576 87.7748 371.357 90.3155 370.525 93.1117C369.693 95.908 369.265 98.905 369.265 101.932V320.393C369.265 323.42 369.693 326.417 370.525 329.213C371.357 332.009 372.576 334.55 374.113 336.69C375.65 338.83 377.475 340.528 379.483 341.686C381.492 342.844 383.644 343.441 385.818 343.441H446.412C448.586 343.441 450.738 342.844 452.747 341.686C454.755 340.528 456.58 338.83 458.117 336.69C459.654 334.55 460.873 332.009 461.705 329.213C462.537 326.417 462.965 323.42 462.965 320.393V170.098H464.009V141.753Z" fill="#3F3D56"/>
<path d="M459.44 103.286V321.429C459.441 325.994 458.139 330.372 455.821 333.601C453.503 336.829 450.359 338.643 447.08 338.644H386.194C382.915 338.643 379.771 336.829 377.453 333.601C375.135 330.372 373.833 325.994 373.834 321.429V103.286C373.834 98.7223 375.137 94.3454 377.454 91.1182C379.772 87.891 382.916 86.0778 386.194 86.0773H393.581C393.217 87.3188 393.079 88.6658 393.177 89.9995C393.275 91.3333 393.608 92.6128 394.145 93.7255C394.682 94.8382 395.408 95.7499 396.258 96.3802C397.108 97.0105 398.056 97.3402 399.019 97.3401H433.733C434.696 97.3402 435.644 97.0105 436.494 96.3802C437.344 95.7499 438.069 94.8382 438.607 93.7255C439.144 92.6129 439.476 91.3333 439.575 89.9995C439.673 88.6658 439.534 87.3188 439.171 86.0773H447.08C450.358 86.0778 453.502 87.891 455.82 91.1182C458.137 94.3454 459.44 98.7223 459.44 103.286V103.286Z" fill="#6C63FF"/>
<path d="M425.706 229.912H407.568V237.395H425.706V229.912Z" fill="#3F3D56"/>
<path d="M447.633 171.646H385.641V174.854H447.633V171.646Z" fill="#3F3D56"/>
<path d="M447.633 181.803H385.641V185.01H447.633V181.803Z" fill="#3F3D56"/>
<path d="M447.633 191.959H385.641V195.166H447.633V191.959Z" fill="#3F3D56"/>
<path d="M447.633 202.115H385.641V205.323H447.633V202.115Z" fill="#3F3D56"/>
<path d="M447.633 212.272H385.641V215.479H447.633V212.272Z" fill="#3F3D56"/>
<path d="M418.802 129.054H408.053V144.021H418.802V129.054Z" fill="#F2F2F2"/>
<path d="M412.168 132.797V150.971H425.221V132.797H412.168ZM424.655 150.183H412.734V133.585H424.655V150.183Z" fill="#3F3D56"/>
<path opacity="0.1" d="M459.44 298.134V321.429C459.441 325.994 458.139 330.372 455.821 333.601C453.503 336.829 450.359 338.643 447.08 338.644H386.194C382.915 338.643 379.771 336.829 377.453 333.601C375.135 330.372 373.833 325.994 373.834 321.429V203.967L425.13 260.391L426.008 261.357L435.55 271.85L436.441 272.833L459.44 298.134Z" fill="black"/>
<path d="M411.37 331.575C422.004 331.575 430.624 319.572 430.624 304.766C430.624 289.961 422.004 277.958 411.37 277.958C400.736 277.958 392.116 289.961 392.116 304.766C392.116 319.572 400.736 331.575 411.37 331.575Z" fill="#F2F2F2"/>
<path d="M140.528 400C132.976 400 125.593 396.882 119.313 391.04C113.034 385.198 108.139 376.894 105.249 367.179C102.359 357.464 101.603 346.774 103.076 336.461C104.55 326.147 108.187 316.674 113.527 309.239C118.867 301.803 125.671 296.739 133.079 294.688C140.486 292.636 148.164 293.689 155.141 297.713C162.119 301.738 168.083 308.552 172.278 317.295C176.474 326.039 178.714 336.318 178.714 346.833C178.702 360.929 174.676 374.443 167.517 384.41C160.358 394.377 150.652 399.984 140.528 400ZM140.528 294.889C133.149 294.889 125.936 297.935 119.801 303.643C113.666 309.351 108.884 317.463 106.06 326.955C103.237 336.446 102.498 346.891 103.937 356.967C105.377 367.043 108.93 376.299 114.148 383.564C119.365 390.828 126.013 395.775 133.25 397.78C140.487 399.784 147.988 398.755 154.805 394.824C161.622 390.892 167.449 384.234 171.549 375.692C175.648 367.15 177.836 357.107 177.836 346.833C177.825 333.061 173.891 319.858 166.897 310.12C159.902 300.382 150.419 294.904 140.528 294.889V294.889Z" fill="#3F3D56"/>
<path d="M417.045 325.444C412.271 325.444 407.603 323.473 403.633 319.78C399.664 316.086 396.57 310.837 394.742 304.695C392.915 298.554 392.437 291.796 393.369 285.276C394.3 278.756 396.599 272.767 399.975 268.066C403.351 263.366 407.653 260.164 412.336 258.868C417.018 257.571 421.872 258.236 426.283 260.78C430.694 263.324 434.465 267.632 437.117 273.16C439.77 278.687 441.186 285.185 441.186 291.833C441.178 300.744 438.633 309.287 434.107 315.589C429.581 321.89 423.445 325.434 417.045 325.444V325.444ZM417.045 259.444C412.444 259.444 407.947 261.344 404.121 264.903C400.296 268.461 397.314 273.52 395.553 279.438C393.793 285.357 393.332 291.869 394.23 298.152C395.127 304.435 397.343 310.206 400.596 314.735C403.849 319.265 407.994 322.35 412.507 323.6C417.019 324.849 421.697 324.208 425.947 321.757C430.198 319.305 433.831 315.154 436.387 309.827C438.943 304.501 440.308 298.239 440.308 291.833C440.301 283.246 437.848 275.013 433.487 268.941C429.126 262.869 423.213 259.454 417.045 259.444Z" fill="#3F3D56"/>
</g>
<defs>
<clipPath id="clip0">
<rect width="500" height="400" fill="white"/>
</clipPath>
</defs>
</svg>
